HIERARCHY
ROOT SpineBase
{
  OFFSET 0.000000 0.000000 0.000000
  CHANNELS 6 Xposition Yposition Zposition Zrotation Xrotation Yrotation
  JOINT SpineMid
  {
    OFFSET 0.000000 28.116701 0.000000
    CHANNELS 3 Zrotation Xrotation Yrotation
    JOINT SpineShoulder
    {
      OFFSET -0.124549 21.002994 -0.674721
      CHANNELS 3 Zrotation Xrotation Yrotation
      JOINT Neck
      {
        OFFSET -0.067462 6.970892 -0.549594
        CHANNELS 3 Zrotation Xrotation Yrotation
        JOINT Head
        {
          OFFSET 2.609693 11.637263 -0.679280
          CHANNELS 3 Zrotation Xrotation Yrotation
          End Site
          {
            OFFSET 0 0 0
          }
        }
      }
      JOINT ShoulderLeft
      {
        OFFSET -11.692899 -2.977442 -8.922326
        CHANNELS 3 Zrotation Xrotation Yrotation
        JOINT ElbowLeft
        {
          OFFSET -5.467609 -18.809525 -3.446376
          CHANNELS 3 Zrotation Xrotation Yrotation
          JOINT WristLeft
          {
            OFFSET 3.254238 -20.879825 -5.684267
            CHANNELS 3 Zrotation Xrotation Yrotation
            JOINT HandLeft
            {
              OFFSET 2.119732 -6.963654 -0.677808
              CHANNELS 3 Zrotation Xrotation Yrotation
              JOINT HandTipLeft
              {
                OFFSET 1.709041 -5.588402 -0.602716
                CHANNELS 3 Zrotation Xrotation Yrotation
                End Site
                {
                  OFFSET 0 0 0
                }
              }
              JOINT ThumbLeft
              {
                OFFSET -4.012080 -0.199759 -1.107835
                CHANNELS 3 Zrotation Xrotation Yrotation
                End Site
                {
                  OFFSET 0 0 0
                }
              }
            }
          }
        }
      }
      JOINT ShoulderRight
      {
        OFFSET 10.620848 -3.725855 3.935854
        CHANNELS 3 Zrotation Xrotation Yrotation
        JOINT ElbowRight
        {
          OFFSET 1.045554 -21.625361 2.025022
          CHANNELS 3 Zrotation Xrotation Yrotation
          JOINT WristRight
          {
            OFFSET 3.135213 -20.709025 -4.948540
            CHANNELS 3 Zrotation Xrotation Yrotation
            JOINT HandRight
            {
              OFFSET -2.060449 -9.087470 -2.947903
              CHANNELS 3 Zrotation Xrotation Yrotation
              JOINT HandTipRight
              {
                OFFSET -1.174919 -2.820660 -1.030754
                CHANNELS 3 Zrotation Xrotation Yrotation
                End Site
                {
                  OFFSET 0 0 0
                }
              }
              JOINT ThumbRight
              {
                OFFSET 1.952098 1.271735 -0.779619
                CHANNELS 3 Zrotation Xrotation Yrotation
                End Site
                {
                  OFFSET 0 0 0
                }
              }
            }
          }
        }
      }
    }
  }
  JOINT HipLeft
  {
    OFFSET -5.267729 0.986365 -5.371373
    CHANNELS 3 Zrotation Xrotation Yrotation
    JOINT KneeLeft
    {
      OFFSET -7.688294 -26.669127 -7.664679
      CHANNELS 3 Zrotation Xrotation Yrotation
      JOINT AnkleLeft
      {
        OFFSET -7.945111 -31.284393 13.478230
        CHANNELS 3 Zrotation Xrotation Yrotation
        JOINT FootLeft
        {
          OFFSET 6.197487 -7.278432 0.027777
          CHANNELS 3 Zrotation Xrotation Yrotation
          End Site
          {
            OFFSET 0 0 0
          }
        }
      }
    }
  }
  JOINT HipRight
  {
    OFFSET 5.096170 0.422909 -0.946907
    CHANNELS 3 Zrotation Xrotation Yrotation
    JOINT KneeRight
    {
      OFFSET -2.744225 -28.862399 0.841193
      CHANNELS 3 Zrotation Xrotation Yrotation
      JOINT AnkleRight
      {
        OFFSET -11.993911 -32.696529 8.173221
        CHANNELS 3 Zrotation Xrotation Yrotation
        JOINT FootRight
        {
          OFFSET 1.180385 -4.543650 -8.822366
          CHANNELS 3 Zrotation Xrotation Yrotation
          End Site
          {
            OFFSET 0 0 0
          }
        }
      }
    }
  }
}
MOTION
Frames: 9
Frame Time: 0.033333
8.519624 68.490721 373.104764 -0.000000 0.000000 -23.118184 0.000000 0.000000 23.118184 -0.000000 0.000000 0.000000 -0.000000 0.000000 0.000000 0.000000 0.000000 0.000000 -0.000000 0.000000 0.000000 -0.000000 0.000000 0.000000 -0.000000 0.000000 0.000000 -0.000000 0.000000 0.000000 0.000000 0.000000 0.000000 0.000000 0.000000 0.000000 -0.000000 0.000000 0.000000 -0.000000 0.000000 0.000000 -0.000000 0.000000 0.000000 -0.000000 0.000000 0.000000 0.000000 0.000000 0.000000 0.000000 0.000000 0.000000 0.000000 0.000000 23.118184 -0.000000 0.000000 0.000000 -0.000000 0.000000 0.000000 0.000000 0.000000 0.000000 0.000000 0.000000 23.118184 -0.000000 0.000000 0.000000 -0.000000 0.000000 0.000000 0.000000 0.000000 0.000000
8.419589 68.641910 373.525524 -0.077541 -0.673685 -24.026743 -0.203484 0.646885 24.027436 -0.000000 0.000000 0.000000 -0.572156 0.758768 -0.199621 0.000000 0.000000 0.000000 1.759558 -0.897795 -0.047937 -3.362427 -0.563242 0.290941 -2.800602 0.886054 0.114873 0.166983 1.783894 0.645469 0.000000 0.000000 0.000000 0.000000 0.000000 0.000000 -0.000000 0.000000 0.000000 -2.164596 -2.367123 0.115057 3.041182 0.896631 -0.181602 6.106835 6.488487 -5.212582 0.000000 0.000000 0.000000 0.000000 0.000000 0.000000 0.602675 0.088374 24.118002 0.308618 1.003808 0.204907 -4.172636 0.959076 0.662413 0.000000 0.000000 0.000000 -0.120108 2.193458 23.914750 -0.703303 -1.379963 0.102149 0.664007 -0.244234 -1.354849 0.000000 0.000000 0.000000
8.304482 68.770022 373.820940 -0.172963 -1.201785 -24.712743 0.136440 0.024932 24.700871 -0.232416 -0.111267 -0.023566 -0.793339 2.779819 -0.313370 0.000000 0.000000 0.000000 3.188014 -0.178538 -0.090263 -5.318563 -0.607198 0.475934 -4.904771 1.701093 0.464064 -0.073062 2.118520 0.886523 0.000000 0.000000 0.000000 0.000000 0.000000 0.000000 0.270253 1.347557 0.031199 -3.459617 -3.482833 0.196619 5.351401 1.258263 -0.601382 9.138520 10.328562 -8.586956 0.000000 0.000000 0.000000 0.000000 0.000000 0.000000 1.082209 0.254995 24.844178 0.618524 1.730891 0.405005 -7.442833 1.465254 0.966099 0.000000 0.000000 0.000000 -0.268474 3.702820 24.527605 -0.854432 -3.022545 0.513866 1.044752 0.423846 -2.982851 0.000000 0.000000 0.000000
8.174304 68.875057 373.991014 -0.286330 -1.583898 -25.186588 0.184123 0.023175 25.166757 -0.317614 -0.158234 -0.033844 -1.046782 3.818586 -0.421391 0.000000 0.000000 0.000000 3.977949 -0.121557 -0.100844 -5.947553 -0.078857 0.536978 -6.345931 2.441970 0.960076 -0.796375 1.084261 0.611041 0.000000 0.000000 0.000000 0.000000 0.000000 0.000000 -0.277377 1.321402 -0.025449 -3.257106 -2.970615 0.430733 7.027536 1.378599 -1.220327 10.316233 12.590689 -10.570024 0.000000 0.000000 0.000000 0.000000 0.000000 0.000000 1.452238 0.478891 25.311955 0.900849 2.192400 0.601014 -9.725087 1.519422 0.860084 0.000000 0.000000 0.000000 -0.406812 4.507913 24.970526 -0.735525 -3.544750 0.665364 1.430746 0.646016 -4.292177 0.000000 0.000000 0.000000
8.029055 68.957016 374.035744 -0.417704 -1.819671 -25.456212 0.218589 0.010408 25.427832 -0.381986 -0.198544 -0.043867 -1.203932 4.619914 -0.506328 0.000000 0.000000 0.000000 4.303548 -0.002331 -0.079341 -5.281041 1.062893 0.447489 -7.145309 3.133243 1.553788 -2.109393 -1.297051 -0.254830 0.000000 0.000000 0.000000 0.000000 0.000000 0.000000 0.014624 0.954499 -0.037980 -3.137836 -1.132124 0.655464 8.131739 1.503513 -2.052160 10.161963 13.606807 -11.397517 0.000000 0.000000 0.000000 0.000000 0.000000 0.000000 1.722085 0.748997 25.532603 1.135286 2.392267 0.795373 -10.974879 1.118160 0.320781 0.000000 0.000000 0.000000 -0.509913 4.601153 25.250768 -0.244236 -3.398398 0.751414 1.726528 0.878517 -5.477410 0.000000 0.000000 0.000000
7.868734 69.015898 373.955131 -0.567152 -1.908726 -25.527011 0.239852 -0.014031 25.490065 -0.425390 -0.231777 -0.053996 -1.264304 5.182183 -0.573192 0.000000 0.000000 0.000000 4.183614 0.167306 -0.019765 -3.404777 2.089187 0.077833 -7.198654 4.560936 2.414249 -4.172546 -5.065833 -1.775106 0.000000 0.000000 0.000000 0.000000 0.000000 0.000000 0.499412 0.179605 -0.052707 -2.451158 2.138135 0.886426 8.688906 1.815882 -3.145090 8.913521 13.439833 -11.223234 0.000000 0.000000 0.000000 0.000000 0.000000 0.000000 1.896365 1.063094 25.513256 1.310924 2.327658 0.991934 -11.178040 0.246697 -0.650666 0.000000 0.000000 0.000000 -0.565281 3.986090 25.370943 0.622910 -2.583966 0.759383 1.927909 1.115501 -6.536724 0.000000 0.000000 0.000000
7.605169 69.075874 373.798878 -0.906549 -1.894892 -25.423306 0.204583 0.050731 25.370527 -0.517760 -0.238611 -0.076734 -0.503286 5.126313 -0.557385 0.000000 0.000000 0.000000 4.271391 0.129982 0.068937 -0.945066 5.287170 -0.184364 -4.658902 5.654708 3.021308 -9.558350 -12.223008 -4.953448 0.000000 0.000000 0.000000 0.000000 0.000000 0.000000 0.857771 -1.111031 -0.095231 -0.399519 6.223010 0.862185 8.981058 4.808397 -5.153655 7.301011 9.939452 -9.600904 0.000000 0.000000 0.000000 0.000000 0.000000 0.000000 2.680434 1.846892 25.046643 0.679541 1.705151 1.433006 -10.727180 -0.405672 -1.578864 0.000000 0.000000 0.000000 -0.357472 3.010557 25.333256 1.666015 -1.327744 0.689268 3.648976 2.946513 -9.868937 0.000000 0.000000 0.000000
7.268495 69.022405 373.644961 -1.291301 -1.978171 -25.015644 0.222546 0.199002 24.945513 -0.429754 -0.273464 -0.086762 -0.447029 5.368790 -0.596017 0.000000 0.000000 0.000000 3.071309 0.140810 0.366062 4.323085 9.191034 -1.308186 -3.863939 6.520004 4.047731 -11.135882 -18.716282 -7.598883 0.000000 0.000000 0.000000 0.000000 0.000000 0.000000 1.788934 -2.628208 -0.090225 2.451480 13.514765 0.406062 8.040616 4.743846 -6.984106 1.198091 13.009529 -10.074228 0.000000 0.000000 0.000000 0.000000 0.000000 0.000000 1.923513 4.436086 23.866543 0.764409 -1.357340 2.434377 -8.213466 -1.328743 -2.901525 0.000000 0.000000 0.000000 -0.182101 1.600468 25.024402 3.181341 0.572050 0.515110 2.044043 1.876620 -8.349332 0.000000 0.000000 0.000000
7.109285 68.951714 373.226264 -1.420495 -1.622235 -24.598080 0.249845 0.002118 24.524966 -0.370590 -0.189331 -0.090078 -0.478160 5.306935 -0.634081 0.000000 0.000000 0.000000 1.184948 0.443768 0.620960 11.135919 12.528021 -2.879886 -3.074347 8.853704 5.473423 -17.018602 -28.213013 -12.403417 0.000000 0.000000 0.000000 0.000000 0.000000 0.000000 3.819508 -5.501572 0.038194 3.920622 22.004191 -0.507672 7.720546 5.615658 -9.329495 -3.581859 8.816761 -8.232578 0.000000 0.000000 0.000000 0.000000 0.000000 0.000000 1.281303 4.487143 23.511602 1.294618 -1.668091 2.268249 -7.301059 -8.870374 -9.292615 0.000000 0.000000 0.000000 -0.170257 -1.028625 24.751710 5.223008 3.207270 0.153855 2.711537 3.784703 -10.072197 0.000000 0.000000 0.000000
